<svg width="403" height="146" viewBox="0 0 403 146" fill="none" xmlns="http://www.w3.org/2000/svg">
<circle cx="171" cy="73" r="73" fill="#0C2853"/>
<path d="M42.432 102.96C36.192 102.96 30.656 102.256 25.824 100.848C21.024 99.408 16.976 97.216 13.68 94.272C10.384 91.296 7.888 87.52 6.192 82.944C4.496 78.368 3.648 72.944 3.648 66.672C3.648 58.672 5.168 51.952 8.208 46.512C11.28 41.072 15.76 36.96 21.648 34.176C27.536 31.392 34.72 30 43.2 30C45.888 30 48.496 30.128 51.024 30.384C53.584 30.64 56.064 31.04 58.464 31.584V46.656C56.288 46.176 54.064 45.808 51.792 45.552C49.552 45.296 47.216 45.168 44.784 45.168C39.792 45.168 35.68 45.904 32.448 47.376C29.216 48.816 26.816 51.104 25.248 54.24C23.712 57.376 22.944 61.456 22.944 66.48C22.944 71.6 23.712 75.728 25.248 78.864C26.784 81.968 29.12 84.24 32.256 85.68C35.424 87.088 39.424 87.792 44.256 87.792C46.624 87.792 48.992 87.616 51.36 87.264C53.76 86.88 56.128 86.368 58.464 85.728V100.752C56.224 101.424 53.696 101.952 50.88 102.336C48.096 102.752 45.28 102.96 42.432 102.96ZM93.57 102.768C87.298 102.768 81.826 101.664 77.154 99.456C72.482 97.248 68.866 93.968 66.306 89.616C63.746 85.264 62.466 79.888 62.466 73.488C62.466 67.088 63.746 61.712 66.306 57.36C68.866 52.976 72.466 49.68 77.106 47.472C81.778 45.232 87.266 44.112 93.57 44.112C99.874 44.112 105.362 45.232 110.034 47.472C114.706 49.68 118.322 52.976 120.882 57.36C123.474 61.712 124.77 67.088 124.77 73.488C124.77 79.856 123.474 85.216 120.882 89.568C118.322 93.92 114.706 97.216 110.034 99.456C105.362 101.664 99.874 102.768 93.57 102.768ZM93.57 88.992C96.29 88.992 98.578 88.464 100.434 87.408C102.322 86.32 103.73 84.656 104.658 82.416C105.618 80.144 106.098 77.248 106.098 73.728C106.098 70.048 105.602 67.04 104.61 64.704C103.65 62.336 102.242 60.608 100.386 59.52C98.53 58.432 96.258 57.888 93.57 57.888C90.914 57.888 88.658 58.416 86.802 59.472C84.946 60.528 83.538 62.192 82.578 64.464C81.618 66.704 81.138 69.6 81.138 73.152C81.138 76.896 81.602 79.936 82.53 82.272C83.49 84.576 84.882 86.272 86.706 87.36C88.562 88.448 90.85 88.992 93.57 88.992ZM133.825 102V44.88H151.777L176.209 79.824H173.713V44.88H190.609V102H172.705L148.273 67.056H150.721V102H133.825Z" fill="#0B68F3"/>
<path d="M173.856 102V44.88H191.808L216.24 79.824H213.744V44.88H230.64V102H212.736L188.304 67.056H190.752V102H173.856ZM242.387 102V44.88H288.755V58.08H260.291V88.8H289.187V102H242.387ZM253.091 79.584V66.432H284.483V79.584H253.091ZM329.062 102.768C321.51 102.768 315.142 101.712 309.958 99.6C304.806 97.488 300.902 94.272 298.246 89.952C295.622 85.632 294.31 80.176 294.31 73.584C294.31 67.312 295.654 61.984 298.342 57.6C301.062 53.216 305.062 49.872 310.342 47.568C315.622 45.264 322.086 44.112 329.734 44.112C331.942 44.112 334.15 44.208 336.358 44.4C338.598 44.592 340.71 44.88 342.694 45.264V59.376C340.934 59.024 339.11 58.752 337.222 58.56C335.366 58.368 333.43 58.272 331.414 58.272C327.222 58.272 323.798 58.816 321.142 59.904C318.518 60.96 316.582 62.608 315.334 64.848C314.118 67.088 313.51 69.968 313.51 73.488C313.51 77.04 314.102 79.936 315.286 82.176C316.502 84.384 318.39 86.016 320.95 87.072C323.542 88.096 326.87 88.608 330.934 88.608C332.886 88.608 334.87 88.464 336.886 88.176C338.934 87.856 340.87 87.472 342.694 87.024V101.088C340.838 101.6 338.678 102 336.214 102.288C333.782 102.608 331.398 102.768 329.062 102.768ZM365.179 102V59.04H346.843V44.88H401.899V59.04H383.563V102H365.179Z" fill="#6A93D0"/>
</svg>
